<svg width="24" height="26" viewBox="0 0 24 26" fill="none" xmlns="http://www.w3.org/2000/svg">
<path d="M2 24V6C2 5.45 2.19583 4.97917 2.5875 4.5875C2.97917 4.19583 3.45 4 4 4H20C20.55 4 21.0208 4.19583 21.4125 4.5875C21.8042 4.97917 22 5.45 22 6V18C22 18.55 21.8042 19.0208 21.4125 19.4125C21.0208 19.8042 20.55 20 20 20H6L2 24Z" fill="#EFFE8B"/>
<path fill-rule="evenodd" clip-rule="evenodd" d="M10.8332 18.4167C10.6429 15.6106 8.66076 13.3808 6.1665 13.1667C8.66076 12.9526 10.6429 10.7227 10.8332 7.91666C11.0235 10.7227 13.0056 12.9526 15.4998 13.1667C13.0056 13.3808 11.0235 15.6106 10.8332 18.4167Z" fill="#1B2210"/>
<path d="M15.4998 5.58334C15.6789 7.58351 17.0919 8.09392 17.8332 8.20834C17.0919 8.32278 15.6789 8.83317 15.4998 10.8333C15.3981 9.99938 14.9444 8.40979 13.1665 8.20834C14.9444 8.0069 15.3981 6.41731 15.4998 5.58334Z" fill="#1B2210"/>
</svg>
