<svg width="32" height="32" viewBox="0 0 32 32" fill="none" xmlns="http://www.w3.org/2000/svg">
<path d="M16.9383 12.2717H3.605C2.87167 12.2717 2.27167 12.8717 2.27167 13.605C2.27167 14.3384 2.87167 14.9384 3.605 14.9384H16.9383C17.6717 14.9384 18.2717 14.3384 18.2717 13.605C18.2717 12.8717 17.6717 12.2717 16.9383 12.2717ZM16.9383 6.93835H3.605C2.87167 6.93835 2.27167 7.53835 2.27167 8.27169C2.27167 9.00502 2.87167 9.60502 3.605 9.60502H16.9383C17.6717 9.60502 18.2717 9.00502 18.2717 8.27169C18.2717 7.53835 17.6717 6.93835 16.9383 6.93835ZM3.605 20.2717H11.605C12.3383 20.2717 12.9383 19.6717 12.9383 18.9384C12.9383 18.205 12.3383 17.605 11.605 17.605H3.605C2.87167 17.605 2.27167 18.205 2.27167 18.9384C2.27167 19.6717 2.87167 20.2717 3.605 20.2717ZM29.2183 15.2184L29.3383 15.3384C29.8583 15.8584 29.8583 16.6984 29.3383 17.2184L21.8983 24.6717C21.3783 25.1917 20.5383 25.1917 20.0183 24.6717L15.8983 20.5517C15.3783 20.0317 15.3783 19.1917 15.8983 18.6717L16.0183 18.5517C16.5383 18.0317 17.3783 18.0317 17.8983 18.5517L20.965 21.6184L27.3383 15.2317C27.845 14.6984 28.6983 14.6984 29.2183 15.2184Z" fill="#EFFE8B"/>
</svg>
