<svg width="28" height="28" viewBox="0 0 28 28" fill="none" xmlns="http://www.w3.org/2000/svg">
<g clip-path="url(#clip0_5436_5914)">
<path d="M26.8334 4.66665V11.6667M26.8334 11.6667H19.8334M26.8334 11.6667L21.42 6.57999C20.1662 5.32549 18.6149 4.40906 16.9111 3.91622C15.2072 3.42338 13.4063 3.3702 11.6764 3.76162C9.9464 4.15305 8.34379 4.97633 7.01807 6.15464C5.69234 7.33296 4.68672 8.8279 4.09502 10.5M1.16669 23.3333V16.3333M1.16669 16.3333H8.16669M1.16669 16.3333L6.58002 21.42C7.83389 22.6745 9.38512 23.5909 11.089 24.0838C12.7928 24.5766 14.5937 24.6298 16.3237 24.2384C18.0536 23.8469 19.6563 23.0236 20.982 21.8453C22.3077 20.667 23.3133 19.1721 23.905 17.5" stroke="#EFFE8B" stroke-width="2.5" stroke-linecap="round" stroke-linejoin="round"/>
</g>
<defs>
<clipPath id="clip0_5436_5914">
<rect width="28" height="28" fill="white"/>
</clipPath>
</defs>
</svg>
