<svg width="134" height="32" viewBox="0 0 134 32" fill="none" xmlns="http://www.w3.org/2000/svg">
<path d="M15.432 17.4829C21.7576 16.7833 23.1267 25.5263 16.8651 26.4994C10.2774 27.5227 8.93199 18.2008 15.432 17.4829Z" fill="#EFFE8B"/>
<path d="M4.42097 5.73828C10.3069 5.03869 11.5809 13.7817 5.75446 14.7548C-0.37438 15.7781 -1.62626 6.45624 4.42097 5.73828Z" fill="#EFFE8B"/>
<path d="M26.3919 5.73828C32.2774 5.03869 33.5512 13.7817 27.7253 14.7548C21.596 15.7781 20.3442 6.45624 26.3919 5.73828Z" fill="#EFFE8B"/>
<path d="M30.0115 18.1023C28.2096 16.746 27.5969 16.8578 24.5954 15.9167C22.9394 15.3975 21.9045 14.4097 21.0051 12.856C20.5673 12.1006 20.5766 10.7112 20.6232 9.85858C20.7018 8.41091 20.2257 6.91073 18.8647 5.9939C17.245 4.90304 14.8645 4.90304 13.2468 5.99973C11.8889 6.92045 11.4097 8.41674 11.4884 9.86442C11.5349 10.7171 11.5443 12.1064 11.1065 12.8619C10.2071 14.4155 9.17208 15.4033 7.5161 15.9225C4.51464 16.8646 3.90193 16.7518 2.10002 18.1081C0.3747 19.408 0.301216 21.7258 0.615851 23.1823C1.26375 26.1836 5.33228 27.6526 7.96528 25.6751C8.53038 25.2502 9.09445 24.6941 9.30248 24.0553C9.64817 22.9946 9.48361 21.8542 9.59331 20.7526C9.7289 19.3856 10.6283 17.8143 11.8517 17.0122C13.075 16.2101 14.4818 15.7794 16.1013 15.7794C17.7208 15.7794 19.0614 16.2188 20.2609 17.0054C21.4843 17.8084 22.3837 19.3788 22.5192 20.7458C22.629 21.8474 22.4644 22.9878 22.8101 24.0485C23.0181 24.6873 23.5822 25.2444 24.1473 25.6683C26.7803 27.6458 30.8488 26.1768 31.4967 23.1754C31.8113 21.719 31.7379 19.4012 30.0125 18.1023L30.0115 18.1023Z" fill="#EFFE8B"/>
<path d="M122.16 12.6735V9.82652H130.264V12.6735H122.16ZM128.703 3.26019L134 14.7398H130.075L125.786 4.80611H126.78L122.476 14.7398H118.566L123.847 3.26019H128.703Z" fill="#EFFE8B"/>
<path d="M106.37 8.21938H110.5C110.963 8.21938 111.32 8.11734 111.572 7.91326C111.835 7.70917 111.966 7.41325 111.966 7.0255C111.966 6.63774 111.835 6.34183 111.572 6.13774C111.32 5.93366 110.963 5.83162 110.5 5.83162H105.849L107.505 4.17856V14.7398H103.832V3.26019H111.052C111.966 3.26019 112.77 3.41836 113.464 3.73468C114.158 4.05101 114.699 4.48979 115.088 5.05101C115.477 5.61223 115.671 6.2704 115.671 7.0255C115.671 7.76019 115.477 8.41325 115.088 8.98468C114.699 9.54591 114.158 9.98468 113.464 10.301C112.77 10.6071 111.966 10.7602 111.052 10.7602H106.37V8.21938ZM107.946 9.36734H112.029L116.097 14.7398H111.888L107.946 9.36734Z" fill="#EFFE8B"/>
<path d="M92.8007 15C91.3819 15 90.1364 14.75 89.0644 14.25C88.0028 13.75 87.1725 13.051 86.5735 12.1531C85.9849 11.2551 85.6906 10.2041 85.6906 9C85.6906 7.79592 85.9849 6.7449 86.5735 5.84694C87.1725 4.94898 88.0028 4.25 89.0644 3.75C90.1364 3.25 91.3819 3 92.8007 3C94.2196 3 95.4598 3.25 96.5213 3.75C97.5934 4.25 98.4237 4.94898 99.0122 5.84694C99.6113 6.7449 99.9108 7.79592 99.9108 9C99.9108 10.2041 99.6113 11.2551 99.0122 12.1531C98.4237 13.051 97.5934 13.75 96.5213 14.25C95.4598 14.75 94.2196 15 92.8007 15ZM92.8007 11.8316C93.5049 11.8316 94.1092 11.7194 94.6137 11.4949C95.1287 11.2602 95.5229 10.9337 95.7961 10.5153C96.0694 10.0867 96.206 9.58163 96.206 9C96.206 8.41837 96.0694 7.91837 95.7961 7.5C95.5229 7.07143 95.1287 6.7449 94.6137 6.52041C94.1092 6.28571 93.5049 6.16837 92.8007 6.16837C92.0965 6.16837 91.487 6.28571 90.972 6.52041C90.4675 6.7449 90.0786 7.07143 89.8053 7.5C89.5321 7.91837 89.3954 8.41837 89.3954 9C89.3954 9.58163 89.5321 10.0867 89.8053 10.5153C90.0786 10.9337 90.4675 11.2602 90.972 11.4949C91.487 11.7194 92.0965 11.8316 92.8007 11.8316Z" fill="#EFFE8B"/>
<path d="M75.7871 3.26019V13.1633L74.1317 11.5714H82.9445V14.7398H72.1138V3.26019H75.7871Z" fill="#EFFE8B"/>
<path d="M56.907 12.6735V9.82652H65.0103V12.6735H56.907ZM63.4495 3.26019L68.7467 14.7398H64.8211L60.533 4.80611H61.5262L57.2223 14.7398H53.3125L58.5939 3.26019H63.4495Z" fill="#EFFE8B"/>
<path d="M46.324 13.1173H44.7948L49.1775 3.26019H53.0243L47.601 14.7398H43.4232L38 3.26019H41.9255L46.324 13.1173Z" fill="#EFFE8B"/>
<path d="M81.9247 29H80.5989V21H81.9247V24.391H86.7613V21H88.0748V29H86.7613V25.5493H81.9247V29Z" fill="#EFFE8B"/>
<path d="M74.7533 29H73.4398V22.1582H70.199V21H77.9818V22.1582H74.7533V29Z" fill="#EFFE8B"/>
<path d="M61.9023 29H60.5765V21H64.8485C66.7144 21 67.8683 21.8597 67.8683 23.3522C67.8683 24.6776 66.9722 25.4896 65.4254 25.5731V25.6567C66.0638 25.8239 66.3584 26.1821 66.653 26.6836L68.0279 29H66.5057L65.1922 26.791C64.8239 26.1582 64.4434 25.8955 63.4122 25.8955H61.9023V29ZM61.9023 22.1582V24.9045H64.8362C65.941 24.9045 66.4934 24.5343 66.4934 23.5313C66.4934 22.5522 65.941 22.1582 64.8362 22.1582H61.9023Z" fill="#EFFE8B"/>
<path d="M50.3876 29H48.9146L52.585 21H54.4509L58.1213 29H56.6237L55.6784 26.9224H51.3329L50.3876 29ZM52.9778 23.3284L51.8607 25.7642H55.1506L54.0335 23.3284L53.5548 22.194H53.4566L52.9778 23.3284Z" fill="#EFFE8B"/>
<path d="M46.6545 29H40.0747V21H46.6545V22.1582H41.4005V24.403H46.4703V25.5493H41.4005V27.8418H46.6545V29Z" fill="#EFFE8B"/>
</svg>
