<svg width="393" height="792" viewBox="0 0 393 792" fill="none" xmlns="http://www.w3.org/2000/svg">
<g clip-path="url(#clip0_5436_5894)">
<path d="M209.732 874.365C185.187 843.351 174.317 842.551 127.578 813.284C101.8 797.146 88.6296 775.782 80.2698 745.436C76.1879 730.694 82.502 707.167 87.0736 692.905C94.832 668.686 93.4207 641.129 74.4064 619.566C51.7727 593.88 11.414 583.327 -20.8892 594.744C-47.9882 604.347 -62.7529 627.609 -67.835 652.495C-70.8299 667.169 -76.8408 690.776 -87.6167 701.633C-109.761 724.002 -131.695 736.154 -162.081 737.638C-217.172 740.31 -227.042 735.688 -263.619 750.686C-298.645 765.085 -310.168 804.069 -311.295 830.184C-313.627 883.95 -251.133 926.928 -197.727 905.053C-186.258 900.34 -174.24 893.405 -167.861 883.504C-157.306 867.048 -155.035 846.968 -148.269 828.776C-139.906 806.205 -117.682 783.533 -93.3807 775.337C-69.0793 767.142 -43.3124 766.103 -15.8407 773.286C11.6311 780.47 32.3912 793.87 49.2476 812.536C66.4267 831.578 74.7151 862.197 70.9522 886.002C67.9163 905.17 60.0665 923.792 61.2458 943.316C61.9317 955.064 69.0389 967.033 76.741 976.727C112.603 1021.94 188.135 1015.06 212.421 967.033C224.213 943.739 233.257 904.075 209.754 874.403L209.732 874.365Z" stroke="#B1C34D" stroke-opacity="0.46" stroke-miterlimit="10"/>
<path d="M584.723 1039.08C519.607 956.82 490.728 954.647 366.746 876.99C298.359 834.124 263.404 777.51 241.213 696.982C230.395 657.827 247.174 595.396 259.299 557.575C279.883 493.351 276.108 420.199 225.674 362.94C165.621 294.774 58.5232 266.769 -27.1919 297.11C-99.1248 322.566 -138.299 384.293 -151.818 450.364C-159.759 489.279 -175.688 551.933 -204.288 580.78C-263.058 640.138 -321.259 672.424 -401.868 676.298C-548.01 683.385 -574.248 671.113 -671.286 710.937C-764.21 749.147 -794.799 852.621 -797.777 921.869C-803.964 1064.58 -638.169 1178.58 -496.423 1120.54C-465.986 1108.08 -434.055 1089.66 -417.197 1063.35C-389.159 1019.68 -383.138 966.423 -365.228 918.124C-343.04 858.177 -284.073 798.06 -219.592 776.327C-155.12 754.624 -86.7315 751.768 -13.8677 770.821C58.9961 789.874 114.166 825.428 158.883 874.938C204.464 925.483 226.464 1006.74 216.466 1069.87C208.441 1120.76 187.623 1170.14 190.695 1221.95C192.545 1253.16 211.366 1284.88 231.787 1310.6C326.977 1430.6 527.351 1412.35 591.816 1284.88C623.116 1223.03 647.094 1117.83 584.723 1039.08ZM584.723 1039.08L584.662 1039.06" stroke="#B1C34D" stroke-opacity="0.46" stroke-miterlimit="10"/>
<path d="M690.109 1085.4C613.594 988.752 579.634 986.191 433.943 894.918C353.551 844.57 312.485 777.998 286.426 683.399C273.735 637.404 293.438 564.039 307.688 519.579C331.868 444.08 327.449 358.153 268.177 290.839C197.602 210.75 71.7353 177.837 -28.9675 213.463C-113.508 243.399 -159.549 315.903 -175.421 393.575C-184.759 439.32 -203.491 512.938 -237.072 546.834C-306.141 616.591 -374.5 654.517 -469.247 659.068C-640.984 667.402 -671.835 652.951 -785.865 699.771C-895.083 744.673 -931.023 866.255 -934.521 947.649C-941.769 1115.36 -746.954 1249.32 -580.361 1181.12C-544.616 1166.46 -507.086 1144.84 -487.244 1113.93C-454.287 1062.6 -447.214 999.992 -426.187 943.241C-400.093 872.811 -330.816 802.137 -255.044 776.616C-179.271 751.096 -98.9046 747.775 -13.2752 770.166C72.3542 792.557 137.172 834.328 189.724 892.529C243.289 951.935 269.149 1047.42 257.397 1121.6C247.953 1181.38 223.475 1239.43 227.086 1300.33C229.258 1336.99 251.355 1374.27 275.392 1404.5C387.276 1545.52 622.73 1524.07 698.506 1374.28C735.298 1301.59 763.475 1177.98 690.2 1085.42L690.139 1085.41L690.109 1085.4Z" stroke="#B1C34D" stroke-opacity="0.46" stroke-miterlimit="10"/>
<path d="M799.399 1133.39C711.051 1021.79 671.879 1018.83 503.635 913.466C410.829 855.335 363.413 778.483 333.309 669.249C318.659 616.13 341.388 531.437 357.856 480.104C385.766 392.942 380.67 293.747 312.229 216.031C230.766 123.569 85.4321 85.5655 -30.8388 126.712C-128.444 161.268 -181.593 244.973 -199.891 334.648C-210.659 387.472 -232.266 472.458 -271.074 511.598C-350.796 592.114 -429.762 635.919 -539.144 641.18C-737.425 650.803 -773.042 634.134 -904.703 688.171C-1030.77 740.01 -1072.27 880.391 -1076.33 974.34C-1084.72 1167.97 -859.781 1322.64 -667.462 1243.89C-626.174 1226.98 -582.875 1202.01 -559.971 1166.33C-521.926 1107.06 -513.752 1034.8 -489.46 969.276C-459.355 887.97 -379.348 806.362 -291.856 776.906C-204.364 747.451 -111.616 743.608 -12.7354 769.464C86.1447 795.32 160.965 843.563 221.637 910.725C283.496 979.299 313.33 1089.56 299.782 1175.2C288.892 1244.23 260.645 1311.24 264.816 1381.52C267.321 1423.84 292.868 1466.88 320.579 1501.77C449.742 1664.55 721.593 1639.81 809.061 1466.86C851.509 1382.95 884.066 1240.23 799.468 1133.37L799.407 1133.36L799.399 1133.39Z" stroke="#B1C34D" stroke-opacity="0.46" stroke-miterlimit="10"/>
<path d="M299.32 913.702C265.079 870.464 249.895 869.313 184.702 828.48C148.738 805.952 130.383 776.169 118.71 733.841C113.042 713.273 121.851 680.45 128.225 660.535C139.029 626.775 137.067 588.316 110.536 558.209C78.9583 522.375 22.6503 507.651 -22.4052 523.608C-60.2108 536.989 -80.8149 569.45 -87.9196 604.177C-92.1022 624.633 -100.457 657.575 -115.507 672.758C-146.405 703.953 -176.99 720.94 -219.378 722.98C-296.222 726.704 -310.018 720.245 -361.042 741.187C-409.898 761.27 -425.965 815.656 -427.554 852.085C-430.817 927.124 -343.633 987.058 -269.114 956.543C-253.117 950 -236.333 940.325 -227.463 926.474C-212.709 903.501 -209.57 875.514 -200.141 850.111C-188.473 818.619 -157.493 786.992 -123.571 775.577C-89.6785 764.154 -53.7201 762.668 -15.4234 772.682C22.8733 782.697 51.8697 801.394 75.3813 827.438C99.3357 854.02 110.906 896.741 105.666 929.915C101.46 956.651 90.49 982.622 92.1099 1009.88C93.0724 1026.27 102.964 1042.95 113.711 1056.49C163.754 1119.57 269.086 1109.98 303.003 1042.96C319.442 1010.44 332.061 955.122 299.282 913.724L299.32 913.702Z" stroke="#B1C34D" stroke-opacity="0.46" stroke-miterlimit="10"/>
<path d="M390.967 953.966C346.819 898.189 327.244 896.733 243.183 844.064C196.806 815.022 173.125 776.619 158.08 722.036C150.766 695.496 162.127 653.165 170.357 627.513C184.308 583.948 181.752 534.38 147.553 495.561C106.837 449.333 34.2157 430.344 -23.8743 450.929C-72.6385 468.184 -99.1981 510.041 -108.35 554.829C-113.73 581.226 -124.545 623.7 -143.915 643.262C-183.752 683.494 -223.201 705.389 -277.858 708.012C-376.949 712.821 -394.723 704.479 -460.523 731.506C-523.536 757.414 -544.276 827.559 -546.283 874.507C-550.465 971.276 -438.079 1048.56 -341.943 1009.21C-321.303 1000.77 -299.669 988.282 -288.232 970.436C-269.217 940.832 -265.146 904.696 -252.992 871.969C-237.963 831.343 -197.982 790.565 -154.255 775.849C-110.529 761.132 -64.1887 759.218 -14.7638 772.142C34.6611 785.066 72.0296 809.161 102.347 842.753C133.265 877.021 148.175 932.119 141.393 974.902C135.941 1009.38 121.833 1042.89 123.922 1078.02C125.16 1099.18 137.941 1120.66 151.778 1138.12C216.318 1219.48 352.178 1207.11 395.9 1120.68C417.132 1078.76 433.383 1007.44 391.11 954.036L391.08 954.028L390.967 953.966Z" stroke="#B1C34D" stroke-opacity="0.46" stroke-miterlimit="10"/>
<path d="M491.881 998.306C436.822 928.756 412.394 926.905 307.538 861.216C249.7 824.964 220.138 777.085 201.37 708.988C192.242 675.881 206.408 623.071 216.683 591.085C234.096 536.759 230.898 474.904 188.229 426.481C137.442 368.839 46.8702 345.155 -25.6272 370.787C-86.4644 392.339 -119.605 444.496 -131.014 500.393C-137.742 533.307 -151.21 586.299 -175.376 610.7C-225.075 660.893 -274.298 688.204 -342.47 691.473C-466.068 697.456 -488.267 687.082 -570.324 720.778C-648.907 753.082 -674.799 840.577 -677.32 899.154C-682.545 1019.86 -542.338 1116.24 -422.439 1067.17C-396.713 1056.62 -369.709 1041.06 -355.434 1018.81C-331.718 981.878 -326.645 936.833 -311.492 895.979C-292.727 845.28 -242.853 794.419 -188.33 776.077C-133.799 757.704 -75.9677 755.328 -14.3533 771.439C47.261 787.551 93.915 817.638 131.722 859.507C170.271 902.252 188.872 970.986 180.425 1024.35C173.649 1067.36 156.014 1109.16 158.618 1152.97C160.171 1179.36 176.095 1206.18 193.374 1227.93C273.873 1329.41 443.322 1313.97 497.881 1206.16C524.357 1153.85 544.639 1064.89 491.889 998.276L491.859 998.268L491.881 998.306Z" stroke="#B1C34D" stroke-opacity="0.46" stroke-miterlimit="10"/>
</g>
<defs>
<clipPath id="clip0_5436_5894">
<rect width="945.453" height="669" fill="white" transform="translate(-303.754) rotate(14.6541)"/>
</clipPath>
</defs>
</svg>
