<svg width="37" height="36" viewBox="0 0 37 36" fill="none" xmlns="http://www.w3.org/2000/svg">
<path d="M5.0692 9.92054C6.8034 11.188 7.39308 11.0835 10.2817 11.963C11.8755 12.4482 12.8716 13.3714 13.7372 14.8233C14.1585 15.5293 14.1496 16.8276 14.1047 17.6245C14.029 18.9774 14.4872 20.3793 15.7971 21.2361C17.356 22.2555 19.647 22.2555 21.2039 21.2307C22.5108 20.3702 22.972 18.9719 22.8962 17.619C22.8514 16.8222 22.8425 15.5238 23.2638 14.8178C24.1294 13.3659 25.1255 12.4428 26.7192 11.9576C29.6079 11.0772 30.1976 11.1826 31.9318 9.91509C33.5923 8.70031 33.663 6.53424 33.3602 5.17317C32.7366 2.36836 28.821 0.995481 26.2869 2.84355C25.7431 3.2406 25.2002 3.76032 25 4.35726C24.6673 5.34853 24.8257 6.4143 24.7201 7.44373C24.5896 8.72121 23.724 10.1897 22.5466 10.9393C21.3692 11.6888 20.0154 12.0913 18.4567 12.0913C16.898 12.0913 15.6078 11.6807 14.4534 10.9456C13.276 10.1951 12.4104 8.72757 12.2799 7.45009C12.1743 6.42066 12.3327 5.35489 12 4.36362C11.7998 3.76667 11.2569 3.24605 10.7131 2.84991C8.179 1.00184 4.26336 2.37472 3.63981 5.17953C3.337 6.54059 3.40772 8.70667 5.06821 9.92054L5.0692 9.92054Z" fill="#C1CB8B"/>
<path d="M5.0692 21.9205C6.8034 23.188 7.39308 23.0835 10.2817 23.963C11.8755 24.4482 12.8716 25.3714 13.7372 26.8233C14.1585 27.5293 14.1496 28.8276 14.1047 29.6245C14.029 30.9774 14.4872 32.3793 15.7971 33.2361C17.356 34.2555 19.647 34.2555 21.2039 33.2307C22.5108 32.3702 22.972 30.9719 22.8962 29.619C22.8514 28.8222 22.8425 27.5238 23.2638 26.8178C24.1294 25.3659 25.1255 24.4428 26.7192 23.9576C29.6079 23.0772 30.1976 23.1826 31.9318 21.9151C33.5923 20.7003 33.663 18.5342 33.3602 17.1732C32.7366 14.3684 28.821 12.9955 26.2869 14.8435C25.7431 15.2406 25.2002 15.7603 25 16.3573C24.6673 17.3485 24.8257 18.4143 24.7201 19.4437C24.5896 20.7212 23.724 22.1897 22.5466 22.9393C21.3692 23.6888 20.0154 24.0913 18.4567 24.0913C16.898 24.0913 15.6078 23.6807 14.4534 22.9456C13.276 22.1951 12.4104 20.7276 12.2799 19.4501C12.1743 18.4207 12.3327 17.3549 12 16.3636C11.7998 15.7667 11.2569 15.2461 10.7131 14.8499C8.179 13.0018 4.26336 14.3747 3.63981 17.1795C3.337 18.5406 3.40772 20.7067 5.06821 21.9205L5.0692 21.9205Z" fill="#C1CB8B"/>
</svg>
